Coordinates
version=1
nRows=21
nColumns=28
inDegrees=yes

Units are S.I. units (second, meters, Newtons, ...)
Angles are in degrees.

endheader
time	pelvis_tilt	pelvis_list	pelvis_rotation	pelvis_tx	pelvis_ty	pelvis_tz	hip_flexion_r	hip_adduction_r	hip_rotation_r	knee_angle_r	ankle_angle_r	subtalar_angle_r	mtp_angle_r	hip_flexion_l	hip_adduction_l	hip_rotation_l	knee_angle_l	socket_flexion	socket_adduction	socket_rotation	socket_tx	socket_ty	socket_tz	foot_flex	lumbar_extension	lumbar_bending	lumbar_rotation
      0.82083333	     -1.84451244	     -9.27480545	      7.88494993	      0.34880544	      0.97894654	      0.23446597	      9.94364802	     17.41923356	      5.03518669	    -18.73761960	      0.43145532	    -29.39431672	     -5.34144197	     27.47585250	    -12.80958384	      5.08339195	    -68.66265099	      2.59154115	      0.00000000	      0.00000000	      0.00000000	      0.00000000	      0.00000000	     -1.32737462	     -4.74438697	      8.36416887	     -8.99134619
      0.82500000	     -1.95388750	     -8.94933044	      7.76829081	      0.35420192	      0.98019231	      0.23368003	      9.36556683	     17.01737637	      5.19703016	    -18.29713507	      0.38390262	    -29.17945635	     -5.23620878	     28.02680703	    -12.08235494	      5.27377311	    -68.05330415	      2.68851514	      0.00000000	      0.00000000	      0.00000000	      0.00000000	      0.00000000	     -1.37368094	     -4.68875505	      8.04506760	     -8.86013752
      0.82916667	     -2.03118927	     -8.62692824	      7.62528716	      0.35963786	      0.98144634	      0.23302882	      8.76169334	     16.62276944	      5.33855360	    -17.86651013	      0.34122767	    -28.93482407	     -5.10620057	     28.50523827	    -11.41524559	      5.41387776	    -67.38263667	      2.77623320	      0.00000000	      0.00000000	      0.00000000	      0.00000000	      0.00000000	     -1.40658419	     -4.68111951	      7.72642332	     -8.72517999
      0.83333333	     -1.85085671	     -8.06956098	      7.41033698	      0.36508335	      0.98336738	      0.23262717	      7.89688317	     15.99928562	      5.37009850	    -17.53405150	      0.29314646	    -28.38727431	     -4.63466266	     28.48223969	    -10.63760594	      5.32052167	    -66.25644169	      3.15106144	      0.00000000	      0.00000000	      0.00000000	      0.00000000	      0.00000000	     -1.29365325	     -5.04018691	      7.14996816	     -8.49689102
      0.83750000	     -1.68182884	     -7.73540022	      7.22658850	      0.37067742	      0.98489790	      0.23214181	      7.01521228	     15.62102569	      5.48118143	    -17.09005213	      0.35730857	    -27.91501655	     -3.95905955	     28.61146287	    -10.09888184	      5.34153236	    -65.56014803	      3.06419501	      0.00000000	      0.00000000	      0.00000000	      0.00000000	      0.00000000	     -1.36292667	     -5.30876879	      6.84083901	     -8.24835675
      0.84166667	     -1.78242273	     -7.60538455	      7.07087837	      0.37607061	      0.98572889	      0.23171765	      6.51010799	     15.45767594	      5.66639701	    -16.71206028	      0.36558494	    -27.80308480	     -3.87374987	     29.19469227	     -9.71619616	      5.51822524	    -65.11523608	      2.81231782	      0.00000000	      0.00000000	      0.00000000	      0.00000000	      0.00000000	     -1.43711032	     -5.24896571	      6.73411587	     -8.15809426
      0.84583333	     -1.88349570	     -7.45253826	      6.91363042	      0.38160618	      0.98663311	      0.23138598	      5.95336501	     15.27207555	      5.86825509	    -16.24615286	      0.28996905	    -27.64956281	     -3.78206057	     29.70422247	     -9.34792131	      5.65109883	    -64.48035145	      2.66669887	      0.00000000	      0.00000000	      0.00000000	      0.00000000	      0.00000000	     -1.49068184	     -5.17197944	      6.58471583	     -8.03288772
      0.85000000	     -1.95229162	     -7.28456849	      6.72904736	      0.38712866	      0.98757373	      0.23117925	      5.38013735	     15.08186282	      6.07714246	    -15.81158408	      0.16923656	    -27.51186503	     -3.69021974	     30.13655595	     -9.00863335	      5.74159235	    -63.77435235	      2.52937495	      0.00000000	      0.00000000	      0.00000000	      0.00000000	      0.00000000	     -1.50793978	     -5.14475530	      6.40759918	     -7.89212636
      0.85416667	     -1.70098540	     -6.88632090	      6.42297200	      0.39266641	      0.98926176	      0.23128951	      4.42487668	     14.70414651	      6.44524479	    -15.39259140	     -0.18720850	    -27.59043525	     -3.33505484	     30.00107574	     -8.61147018	      5.52445675	    -62.68349631	      2.57909838	      0.00000000	      0.00000000	      0.00000000	      0.00000000	      0.00000000	     -1.43609319	     -5.55465367	      5.98076628	     -7.51048193
      0.85833333	     -1.67120757	     -6.75234233	      6.19952885	      0.39822812	      0.99025510	      0.23128666	      3.72798936	     14.58365095	      6.79085856	    -14.91653382	     -0.46871403	    -27.70251324	     -3.07074992	     30.28046666	     -8.41263256	      5.52752157	    -61.94154977	      2.33951900	      0.00000000	      0.00000000	      0.00000000	      0.00000000	      0.00000000	     -1.44057424	     -5.64542438	      5.84433524	     -7.27864522
      0.86250000	     -1.74965473	     -6.68011920	      6.02450597	      0.40374579	      0.99088955	      0.23121859	      3.21677339	     14.50540117	      7.00355368	    -14.54428818	     -0.54354180	    -27.68039666	     -3.00159156	     30.73440828	     -8.23769808	      5.61054422	    -61.31353772	      1.98984827	      0.00000000	      0.00000000	      0.00000000	      0.00000000	      0.00000000	     -1.48634429	     -5.59382840	      5.77543002	     -7.16867449
      0.86666667	     -1.62379478	     -6.47800102	      5.68659442	      0.40932109	      0.99207883	      0.23158549	      2.39875408	     14.35593146	      7.57060997	    -14.07258644	     -1.03943793	    -28.25811896	     -2.81044519	     30.78348537	     -8.11027432	      5.40734873	    -60.38404831	      1.76867872	      0.00000000	      0.00000000	      0.00000000	      0.00000000	      0.00000000	     -1.46530981	     -5.81543903	      5.52768212	     -6.75736669
      0.87083333	     -1.71729167	     -6.47506741	      5.49534990	      0.41483098	      0.99255915	      0.23162749	      1.97200736	     14.34487741	      7.66117144	    -13.79256545	     -1.09057267	    -28.21144078	     -2.79032403	     31.24078980	     -8.06057833	      5.45248717	    -59.73912925	      1.35262335	      0.00000000	      0.00000000	      0.00000000	      0.00000000	      0.00000000	     -1.49922744	     -5.74159632	      5.54263308	     -6.70339928
      0.87500000	     -1.70518356	     -6.30766122	      5.11978882	      0.42038688	      0.99347261	      0.23208510	      1.29374846	     14.22272553	      8.34180535	    -13.34369851	     -1.61456027	    -28.65384979	     -2.80602141	     31.38084541	     -7.99684600	      5.21432526	    -58.76571650	      1.09365393	      0.00000000	      0.00000000	      0.00000000	      0.00000000	      0.00000000	     -1.44375377	     -5.83155614	      5.32131768	     -6.30654530
      0.87916667	     -1.79071995	     -6.32698927	      4.95059690	      0.42587767	      0.99382837	      0.23215485	      0.87035158	     14.24205240	      8.43995526	    -13.07526079	     -1.64536655	    -28.65059113	     -2.79911927	     31.80963201	     -7.99390554	      5.23709763	    -58.09217921	      0.61704398	      0.00000000	      0.00000000	      0.00000000	      0.00000000	      0.00000000	     -1.47322301	     -5.76714327	      5.35212402	     -6.24025930
      0.88333333	     -1.82989803	     -6.34792463	      4.79174693	      0.43095483	      0.99407109	      0.23222273	      0.57747725	     14.27177987	      8.43699454	    -13.09530009	     -1.66070092	    -28.64649902	     -2.79794071	     32.23033081	     -7.98190889	      5.30389368	    -57.45912591	      0.11270125	      0.00000000	      0.00000000	      0.00000000	      0.00000000	      0.00000000	     -1.42963328	     -5.84559855	      5.38500139	     -6.22255763
      0.88750000	     -1.98709127	     -6.33728679	      4.54988755	      0.43695491	      0.99449645	      0.23240816	      0.00353513	     14.25268911	      8.85312785	    -12.46585213	     -1.85783830	    -28.58184417	     -2.80092409	     32.55750006	     -8.02113005	      5.16965866	    -56.54441166	     -0.33603547	      0.00000000	      0.00000000	      0.00000000	      0.00000000	      0.00000000	     -1.47249535	     -5.58542384	      5.37426119	     -6.05576058
      0.89166667	     -2.02848413	     -6.36105062	      4.40909867	      0.44194114	      0.99461503	      0.23243542	     -0.26742009	     14.29286941	      8.85761974	    -12.51167962	     -1.88163216	    -28.58811764	     -2.80314123	     32.96217659	     -8.01186034	      5.21020197	    -55.87792518	     -0.87034670	      0.00000000	      0.00000000	      0.00000000	      0.00000000	      0.00000000	     -1.41564810	     -5.68908721	      5.40610781	     -6.03378366
      0.89583333	     -1.92735427	     -6.15099252	      3.58256061	      0.44779905	      0.99590893	      0.23386474	     -1.34585916	     14.21128863	     10.81651148	    -11.66220972	     -3.38081575	    -30.96451346	     -3.66196200	     32.63352399	     -8.31671126	      4.30368028	    -54.47564679	     -1.17670887	      0.00000000	      0.00000000	      0.00000000	      0.00000000	      0.00000000	     -1.35179553	     -5.85079031	      5.07261323	     -4.94818313
      0.90000000	     -2.01424841	     -6.20976337	      3.42485557	      0.45312148	      0.99597053	      0.23384523	     -1.65378723	     14.25832138	     10.81248930	    -11.56812174	     -3.39544035	    -30.94181177	     -3.66864313	     32.98247685	     -8.37888220	      4.26321028	    -53.68464975	     -1.75065498	      0.00000000	      0.00000000	      0.00000000	      0.00000000	      0.00000000	     -1.34909670	     -5.80402096	      5.16622367	     -4.91951996
      0.90416667	     -2.18687575	     -6.17141743	      3.06961426	      0.45863848	      0.99612886	      0.23420546	     -2.03186070	     14.21065692	     11.30638833	    -11.24734785	     -3.61187431	    -30.93712250	     -3.73654383	     33.24418936	     -8.46701407	      3.96637349	    -52.61890828	     -2.19440448	      0.00000000	      0.00000000	      0.00000000	      0.00000000	      0.00000000	     -1.30809951	     -5.65498221	      5.10431684	     -4.72585080
